<?xml version="1.0" encoding="iso-8859-1"?>
<svg xmlns="http://www.w3.org/2000/svg" xmlns:xlink="http://www.w3.org/1999/xlink" version="1.1" viewBox="0 0 470 470" enable-background="new 0 0 470 470" width="512px" height="512px">
  <g>
    <path d="m370.067,338.815c-4.143,0-7.5,3.357-7.5,7.5v108.685h-97.567c-4.143,0-7.5,3.357-7.5,7.5s3.357,7.5 7.5,7.5h105.067c4.143,0 7.5-3.357 7.5-7.5v-116.185c0-4.142-3.357-7.5-7.5-7.5z" fill="#114571"/>
    <path d="m404.622,313.431l-27.632-66.315c-1.164-2.795-3.896-4.615-6.923-4.615h-270.134c-3.027,0-5.759,1.82-6.923,4.615l-27.632,66.315c-0.965,2.314-0.709,4.959 0.683,7.045 1.391,2.087 3.732,3.34 6.24,3.34h20.132v138.684c0,4.143 3.357,7.5 7.5,7.5h135.067c4.143,0 7.5-3.357 7.5-7.5v-175l13.209,31.701c1.164,2.795 3.896,4.615 6.923,4.615h135.067c2.508,0 4.85-1.253 6.24-3.34 1.392-2.086 1.648-4.731 0.683-7.045zm-299.689-55.931h118.817l-21.382,51.315h-118.817l21.382-51.315zm2.5,197.5v-131.185h99.936c3.027,0 5.759-1.82 6.923-4.615l13.208-31.7v167.5h-120.067zm160.199-146.185l-21.382-51.315h118.817l21.382,51.315h-118.817z" fill="#114571"/>
    <path d="M185.086,175.125l4.147,16.685c0.831,3.343,3.833,5.69,7.278,5.69h76.977c3.445,0,6.447-2.348,7.278-5.69l4.147-16.685   c27.688-17.216,44.756-47.747,44.756-80.455C329.67,42.469,287.201,0,235,0s-94.67,42.469-94.67,94.67   C140.33,127.378,157.398,157.909,185.086,175.125z M235,15c43.93,0,79.67,35.74,79.67,79.67c0,28.44-15.335,54.926-40.021,69.119   c-1.77,1.018-3.048,2.712-3.54,4.692l-3.485,14.019h-65.248l-3.485-14.019c-0.492-1.98-1.771-3.675-3.54-4.692   c-24.686-14.193-40.021-40.679-40.021-69.119C155.33,50.74,191.07,15,235,15z" fill="#114571"/>
    <path d="m273.488,212.5h-76.977c-4.143,0-7.5,3.357-7.5,7.5s3.357,7.5 7.5,7.5h76.977c4.143,0 7.5-3.357 7.5-7.5s-3.357-7.5-7.5-7.5z" fill="#114571"/>
    <path d="m212.722,161.81c0.848,3.412 3.908,5.692 7.272,5.692 0.599,0 1.208-0.072 1.815-0.224 4.02-0.999 6.468-5.067 5.469-9.088l-6.634-26.69h28.711l-6.634,26.69c-0.999,4.021 1.449,8.089 5.469,9.088 0.607,0.151 1.217,0.224 1.815,0.224 3.364,0 6.425-2.28 7.272-5.692l8.948-36c0.01-0.039 0.014-0.079 0.023-0.118 0.033-0.144 0.061-0.29 0.086-0.437 0.019-0.114 0.038-0.227 0.052-0.34 0.014-0.119 0.024-0.239 0.033-0.359 0.011-0.143 0.019-0.286 0.022-0.429 0.001-0.042 0.006-0.084 0.006-0.126 0-0.059-0.007-0.116-0.009-0.175-0.003-0.153-0.01-0.304-0.023-0.456-0.009-0.104-0.021-0.207-0.033-0.31-0.017-0.137-0.037-0.273-0.062-0.408-0.021-0.117-0.046-0.233-0.073-0.349-0.027-0.116-0.056-0.23-0.089-0.344-0.036-0.129-0.076-0.255-0.119-0.381-0.034-0.098-0.069-0.196-0.107-0.292-0.052-0.132-0.106-0.262-0.165-0.391-0.041-0.09-0.084-0.178-0.128-0.266-0.064-0.126-0.13-0.25-0.201-0.372-0.051-0.089-0.105-0.177-0.16-0.264-0.071-0.113-0.145-0.223-0.222-0.331-0.065-0.093-0.134-0.183-0.204-0.272-0.074-0.095-0.15-0.189-0.229-0.281-0.082-0.095-0.167-0.188-0.254-0.279-0.076-0.08-0.152-0.157-0.231-0.233-0.097-0.093-0.197-0.183-0.299-0.271-0.08-0.068-0.16-0.135-0.242-0.201-0.106-0.084-0.214-0.165-0.325-0.243-0.09-0.064-0.181-0.125-0.273-0.185-0.107-0.069-0.215-0.135-0.326-0.198-0.108-0.062-0.217-0.121-0.328-0.177-0.1-0.051-0.202-0.1-0.305-0.147-0.13-0.059-0.263-0.114-0.397-0.166-0.092-0.035-0.183-0.07-0.277-0.101-0.148-0.051-0.299-0.095-0.452-0.137-0.054-0.015-0.105-0.035-0.159-0.048-0.04-0.01-0.08-0.014-0.12-0.023-0.141-0.032-0.283-0.059-0.427-0.084-0.12-0.021-0.24-0.04-0.36-0.055-0.108-0.013-0.217-0.022-0.327-0.031-0.157-0.012-0.314-0.021-0.47-0.024-0.036,0-0.071-0.005-0.106-0.005h-47.896c-2.308,0-4.487,1.063-5.908,2.881-1.422,1.817-1.927,4.188-1.37,6.429l8.951,35.999z" fill="#114571"/>
  </g>
</svg>
